<svg version="1.1" viewBox="0.0 0.0 960.0 540.0" fill="none" stroke="none" stroke-linecap="square" stroke-miterlimit="10" xmlns:xlink="http://www.w3.org/1999/xlink" xmlns="http://www.w3.org/2000/svg"><clipPath id="p.0"><path d="m0 0l960.0 0l0 540.0l-960.0 0l0 -540.0z" clip-rule="nonzero"/></clipPath><g clip-path="url(#p.0)"><path fill="#ffffff" d="m0 0l960.0 0l0 540.0l-960.0 0z" fill-rule="evenodd"/><path fill="#000000" fill-opacity="0.0" d="m431.61154 493.98425l0.12597656 -135.3386" fill-rule="evenodd"/><path stroke="#4285f4" stroke-width="4.0" stroke-linejoin="round" stroke-linecap="butt" d="m431.61154 493.98425l0.12597656 -135.3386" fill-rule="evenodd"/><path fill="#000000" fill-opacity="0.0" d="m431.61154 357.97113l-59.55905 0" fill-rule="evenodd"/><path stroke="#4285f4" stroke-width="4.0" stroke-linejoin="round" stroke-linecap="butt" d="m431.61154 357.97113l-59.55905 0" fill-rule="evenodd"/><path fill="#4285f4" d="m362.0 357.97113l0 0c0 -6.357788 5.154022 -11.51181 11.51181 -11.51181l0 0c3.053131 0 5.981201 1.2128601 8.140076 3.3717346c2.1588745 2.1588745 3.3717346 5.0869446 3.3717346 8.140076l0 0c0 6.357788 -5.154022 11.51181 -11.51181 11.51181l0 0c-6.357788 0 -11.51181 -5.154022 -11.51181 -11.51181z" fill-rule="evenodd"/><path stroke="#4285f4" stroke-width="1.0" stroke-linejoin="round" stroke-linecap="butt" d="m362.0 357.97113l0 0c0 -6.357788 5.154022 -11.51181 11.51181 -11.51181l0 0c3.053131 0 5.981201 1.2128601 8.140076 3.3717346c2.1588745 2.1588745 3.3717346 5.0869446 3.3717346 8.140076l0 0c0 6.357788 -5.154022 11.51181 -11.51181 11.51181l0 0c-6.357788 0 -11.51181 -5.154022 -11.51181 -11.51181z" fill-rule="evenodd"/><path fill="#000000" fill-opacity="0.0" d="m443.91077 492.63254l0 -269.3228" fill-rule="evenodd"/><path stroke="#ffab40" stroke-width="4.0" stroke-linejoin="round" stroke-linecap="butt" d="m443.91077 492.63254l0 -269.3228" fill-rule="evenodd"/><path fill="#000000" fill-opacity="0.0" d="m443.91077 221.95538l-41.95276 0" fill-rule="evenodd"/><path stroke="#ffab40" stroke-width="4.0" stroke-linejoin="round" stroke-linecap="butt" d="m443.91077 221.95538l-41.95276 0" fill-rule="evenodd"/><path fill="#ffab40" d="m385.02362 221.95538l0 0c0 -6.3578033 5.154022 -11.51181 11.51181 -11.51181l0 0c3.053131 0 5.981201 1.2128448 8.140076 3.3717346c2.1588745 2.1588745 3.3717346 5.0869446 3.3717346 8.140076l0 0c0 6.357788 -5.154022 11.51181 -11.51181 11.51181l0 0c-6.357788 0 -11.51181 -5.154022 -11.51181 -11.51181z" fill-rule="evenodd"/><path stroke="#ffab40" stroke-width="1.0" stroke-linejoin="round" stroke-linecap="butt" d="m385.02362 221.95538l0 0c0 -6.3578033 5.154022 -11.51181 11.51181 -11.51181l0 0c3.053131 0 5.981201 1.2128448 8.140076 3.3717346c2.1588745 2.1588745 3.3717346 5.0869446 3.3717346 8.140076l0 0c0 6.357788 -5.154022 11.51181 -11.51181 11.51181l0 0c-6.357788 0 -11.51181 -5.154022 -11.51181 -11.51181z" fill-rule="evenodd"/><path fill="#000000" fill-opacity="0.0" d="m456.20996 495.3386l0 -403.3071" fill-rule="evenodd"/><path stroke="#eeff41" stroke-width="4.0" stroke-linejoin="round" stroke-linecap="butt" d="m456.20996 495.3386l0 -403.3071" fill-rule="evenodd"/><path fill="#eeff41" d="m444.69815 89.08137l0 0c0 -6.3578033 5.154022 -11.51181 11.51181 -11.51181l0 0c3.053131 0 5.981201 1.2128448 8.140106 3.371727c2.1588745 2.1588821 3.371704 5.08696 3.371704 8.140083l0 0c0 6.3577957 -5.1539917 11.51181 -11.51181 11.51181l0 0c-6.357788 0 -11.51181 -5.1540146 -11.51181 -11.51181z" fill-rule="evenodd"/><path stroke="#eeff41" stroke-width="1.0" stroke-linejoin="round" stroke-linecap="butt" d="m444.69815 89.08137l0 0c0 -6.3578033 5.154022 -11.51181 11.51181 -11.51181l0 0c3.053131 0 5.981201 1.2128448 8.140106 3.371727c2.1588745 2.1588821 3.371704 5.08696 3.371704 8.140083l0 0c0 6.3577957 -5.1539917 11.51181 -11.51181 11.51181l0 0c-6.357788 0 -11.51181 -5.1540146 -11.51181 -11.51181z" fill-rule="evenodd"/><path fill="#000000" fill-opacity="0.0" d="m467.72177 492.63254l0 -323.46454" fill-rule="evenodd"/><path stroke="#33bb33" stroke-width="4.0" stroke-linejoin="round" stroke-linecap="butt" d="m467.72177 492.63254l0 -323.46454" fill-rule="evenodd"/><path fill="#000000" fill-opacity="0.0" d="m509.67453 169.16798l-41.95276 0" fill-rule="evenodd"/><path stroke="#33bb33" stroke-width="4.0" stroke-linejoin="round" stroke-linecap="butt" d="m509.67453 169.16798l-41.95276 0" fill-rule="evenodd"/><path fill="#33bb33" d="m509.67453 169.16798l0 0c0 -6.3578033 5.154022 -11.51181 11.51181 -11.51181l0 0c3.0531616 0 5.981201 1.2128448 8.140076 3.3717194c2.1588745 2.1588898 3.3717651 5.08696 3.3717651 8.140091l0 0c0 6.357788 -5.1540527 11.51181 -11.511841 11.51181l0 0c-6.357788 0 -11.51181 -5.154022 -11.51181 -11.51181z" fill-rule="evenodd"/><path stroke="#33bb33" stroke-width="1.0" stroke-linejoin="round" stroke-linecap="butt" d="m509.67453 169.16798l0 0c0 -6.3578033 5.154022 -11.51181 11.51181 -11.51181l0 0c3.0531616 0 5.981201 1.2128448 8.140076 3.3717194c2.1588745 2.1588898 3.3717651 5.08696 3.3717651 8.140091l0 0c0 6.357788 -5.1540527 11.51181 -11.511841 11.51181l0 0c-6.357788 0 -11.51181 -5.154022 -11.51181 -11.51181z" fill-rule="evenodd"/><path fill="#000000" fill-opacity="0.0" d="m479.3596 495.3386l0 -184.31497" fill-rule="evenodd"/><path stroke="#cc4125" stroke-width="4.0" stroke-linejoin="round" stroke-linecap="butt" d="m479.3596 495.3386l0 -184.31497" fill-rule="evenodd"/><path fill="#000000" fill-opacity="0.0" d="m538.79266 311.02362l-59.559082 0" fill-rule="evenodd"/><path stroke="#cc4125" stroke-width="4.0" stroke-linejoin="round" stroke-linecap="butt" d="m538.79266 311.02362l-59.559082 0" fill-rule="evenodd"/><path fill="#cc4125" d="m533.5197 311.02362l0 0c0 -6.357788 5.1539917 -11.51181 11.51178 -11.51181l0 0c3.0531006 0 5.981201 1.2128601 8.140076 3.3717346c2.1588745 2.1588745 3.3717651 5.0869446 3.3717651 8.140076l0 0c0 6.357788 -5.1540527 11.51181 -11.511841 11.51181l0 0c-6.357788 0 -11.51178 -5.154022 -11.51178 -11.51181z" fill-rule="evenodd"/><path stroke="#cc4125" stroke-width="1.0" stroke-linejoin="round" stroke-linecap="butt" d="m533.5197 311.02362l0 0c0 -6.357788 5.1539917 -11.51181 11.51178 -11.51181l0 0c3.0531006 0 5.981201 1.2128601 8.140076 3.3717346c2.1588745 2.1588745 3.3717651 5.0869446 3.3717651 8.140076l0 0c0 6.357788 -5.1540527 11.51181 -11.511841 11.51181l0 0c-6.357788 0 -11.51178 -5.154022 -11.51178 -11.51181z" fill-rule="evenodd"/><path fill="#000000" fill-opacity="0.0" d="m266.36746 365.97113l129.25983 0l0 64.62991l-129.25983 0z" fill-rule="evenodd"/><path fill="#0097a7" d="m295.76572 392.8911l-4.09375 0l0 -13.34375q2.703125 -0.125 3.78125 -0.125q2.078125 0 3.25 0.890625q1.171875 0.890625 1.171875 2.546875q0 1.578125 -1.671875 2.5q2.484375 0.859375 2.484375 3.5625q0 1.828125 -1.375 2.90625q-1.375 1.0625 -3.546875 1.0625zm-1.71875 -11.4375l0 3.1875q0.546875 0.046875 1.140625 0.046875q2.328125 0 2.328125 -1.75q0 -1.53125 -2.109375 -1.53125q-0.5625 0 -1.359375 0.046875zm0 5.046875l0 4.40625q0.71875 0.0625 1.171875 0.0625q1.578125 0 2.296875 -0.53125q0.71875 -0.546875 0.71875 -1.796875q0 -1.140625 -0.671875 -1.65625q-0.65625 -0.515625 -2.328125 -0.515625q-0.34375 0 -1.1875 0.03125zm14.026337 5.421875q-0.3125 0.5 -1.078125 0.828125q-0.765625 0.328125 -1.609375 0.328125q-1.578125 0 -2.484375 -0.78125q-0.890625 -0.796875 -0.890625 -2.25q0 -1.6875 1.265625 -2.640625q1.28125 -0.96875 3.609375 -0.96875q0.40625 0 0.953125 0.140625q0 -1.71875 -2.171875 -1.71875q-1.296875 0 -2.15625 0.421875l-0.484375 -1.765625q1.171875 -0.5625 2.796875 -0.5625q2.21875 0 3.25 1.015625q1.046875 1.015625 1.046875 3.84375l0 2.09375q0 1.953125 0.78125 2.453125q-0.28125 0.484375 -0.625 0.59375q-0.34375 0.125 -0.78125 0.125q-0.5 0 -0.890625 -0.359375q-0.390625 -0.375 -0.53125 -0.796875zm-0.21875 -3.625q-0.578125 -0.109375 -0.875 -0.109375q-2.6875 0 -2.6875 1.765625q0 1.3125 1.515625 1.3125q2.046875 0 2.046875 -2.0625l0 -0.90625zm5.1259766 -8.796875l2.28125 -0.546875l0 10.96875q0 1.796875 1.0625 2.15625q-0.515625 1.0 -1.796875 1.0q-1.546875 0 -1.546875 -2.15625l0 -11.421875zm6.892761 -0.140625q0.546875 0 0.9375 0.390625q0.390625 0.375 0.390625 0.921875q0 0.546875 -0.390625 0.9375q-0.390625 0.390625 -0.9375 0.390625q-0.546875 0 -0.9375 -0.390625q-0.390625 -0.390625 -0.390625 -0.9375q0 -0.546875 0.390625 -0.921875q0.390625 -0.390625 0.9375 -0.390625zm-1.171875 13.53125l0 -7.890625l-1.25 0l0 -1.859375l3.546875 0l0 9.75l-2.296875 0zm11.190887 0l-2.875 -4.421875l-1.09375 1.15625l0 3.265625l-2.265625 0l0 -13.390625l2.265625 -0.546875l0 7.921875l3.265625 -3.734375l2.734375 0l-3.296875 3.6875l3.96875 6.0625l-2.703125 0zm18.49768 0.1875l-6.484375 -8.453125l0 8.28125l-2.28125 0l0 -13.359375l1.140625 0l6.3125 8.046875l0 -8.046875l2.28125 0l0 13.53125l-0.96875 0zm8.983917 -1.15625q-0.3125 0.5 -1.078125 0.828125q-0.765625 0.328125 -1.609375 0.328125q-1.578125 0 -2.484375 -0.78125q-0.890625 -0.796875 -0.890625 -2.25q0 -1.6875 1.265625 -2.640625q1.28125 -0.96875 3.609375 -0.96875q0.40625 0 0.953125 0.140625q0 -1.71875 -2.171875 -1.71875q-1.296875 0 -2.15625 0.421875l-0.484375 -1.765625q1.171875 -0.5625 2.796875 -0.5625q2.21875 0 3.25 1.015625q1.046875 1.015625 1.046875 3.84375l0 2.09375q0 1.953125 0.78125 2.453125q-0.28125 0.484375 -0.625 0.59375q-0.34375 0.125 -0.78125 0.125q-0.5 0 -0.890625 -0.359375q-0.390625 -0.375 -0.53125 -0.796875zm-0.21875 -3.625q-0.578125 -0.109375 -0.875 -0.109375q-2.6875 0 -2.6875 1.765625q0 1.3125 1.515625 1.3125q2.046875 0 2.046875 -2.0625l0 -0.90625zm16.032227 4.59375l0 -6.109375q0 -1.921875 -1.734375 -1.921875q-0.5 0 -0.984375 0.296875q-0.46875 0.296875 -0.65625 0.6875l0 7.046875l-2.28125 0l0 -6.46875q0 -0.71875 -0.453125 -1.140625q-0.4375 -0.421875 -1.25 -0.421875q-0.421875 0 -0.9375 0.328125q-0.5 0.3125 -0.734375 0.6875l0 7.015625l-2.265625 0l0 -9.75l1.5625 0l0.46875 0.84375q0.9375 -1.03125 2.453125 -1.03125q1.9375 0 2.921875 1.0625q0.421875 -0.484375 1.1875 -0.765625q0.765625 -0.296875 1.53125 -0.296875q1.625 0 2.53125 0.9375q0.90625 0.921875 0.90625 2.5625l0 6.4375l-2.265625 0zm10.157715 -0.96875q-0.3125 0.5 -1.078125 0.828125q-0.765625 0.328125 -1.609375 0.328125q-1.578125 0 -2.484375 -0.78125q-0.890625 -0.796875 -0.890625 -2.25q0 -1.6875 1.265625 -2.640625q1.28125 -0.96875 3.609375 -0.96875q0.40625 0 0.953125 0.140625q0 -1.71875 -2.171875 -1.71875q-1.296875 0 -2.15625 0.421875l-0.484375 -1.765625q1.171875 -0.5625 2.796875 -0.5625q2.21875 0 3.25 1.015625q1.046875 1.015625 1.046875 3.84375l0 2.09375q0 1.953125 0.78125 2.453125q-0.28125 0.484375 -0.625 0.59375q-0.34375 0.125 -0.78125 0.125q-0.5 0 -0.890625 -0.359375q-0.390625 -0.375 -0.53125 -0.796875zm-0.21875 -3.625q-0.578125 -0.109375 -0.875 -0.109375q-2.6875 0 -2.6875 1.765625q0 1.3125 1.515625 1.3125q2.046875 0 2.046875 -2.0625l0 -0.90625z" fill-rule="nonzero"/><path fill="#0097a7" d="m287.89966 415.29114l-3.71875 -5.6875l-1.484375 2.03125l0 3.65625l-2.375 0l0 -13.34375l2.375 0l0 6.390625l4.53125 -6.390625l2.703125 0l-4.1875 5.828125l4.984375 7.515625l-2.828125 0zm12.514404 -4.1875l-6.96875 0q0.0625 1.171875 0.796875 1.828125q0.75 0.640625 1.984375 0.640625q1.5625 0 2.375 -0.8125l0.890625 1.734375q-1.203125 0.984375 -3.59375 0.984375q-2.234375 0 -3.53125 -1.3125q-1.296875 -1.3125 -1.296875 -3.640625q0 -2.3125 1.421875 -3.734375q1.421875 -1.4375 3.421875 -1.4375q2.125 0 3.40625 1.265625q1.28125 1.265625 1.28125 3.21875q0 0.421875 -0.1875 1.265625zm-6.890625 -1.703125l4.796875 0q-0.234375 -2.140625 -2.375 -2.140625q-1.9375 0 -2.421875 2.140625zm11.003113 5.640625l0 4.078125l-2.28125 0l0 -13.578125l2.28125 0l0 0.65625q0.859375 -0.84375 2.09375 -0.84375q4.671875 0 4.671875 5.140625q0 2.390625 -1.296875 3.6875q-1.28125 1.296875 -3.515625 1.296875q-1.078125 0 -1.953125 -0.4375zm0 -7.125l0 5.140625q0.609375 0.5 1.4375 0.5q1.578125 0 2.265625 -0.75q0.6875 -0.765625 0.6875 -2.375q0 -1.734375 -0.6875 -2.4375q-0.671875 -0.703125 -2.25 -0.703125q-0.8125 0 -1.453125 0.625zm17.47702 3.1875l-6.96875 0q0.0625 1.171875 0.796875 1.828125q0.75 0.640625 1.984375 0.640625q1.5625 0 2.375 -0.8125l0.890625 1.734375q-1.203125 0.984375 -3.59375 0.984375q-2.234375 0 -3.53125 -1.3125q-1.296875 -1.3125 -1.296875 -3.640625q0 -2.3125 1.421875 -3.734375q1.421875 -1.4375 3.421875 -1.4375q2.125 0 3.40625 1.265625q1.28125 1.265625 1.28125 3.21875q0 0.421875 -0.1875 1.265625zm-6.890625 -1.703125l4.796875 0q-0.234375 -2.140625 -2.375 -2.140625q-1.9375 0 -2.421875 2.140625zm20.206238 5.890625l0 -6.109375q0 -1.921875 -1.734375 -1.921875q-0.5 0 -0.984375 0.296875q-0.46875 0.296875 -0.65625 0.6875l0 7.046875l-2.28125 0l0 -6.46875q0 -0.71875 -0.453125 -1.140625q-0.4375 -0.421875 -1.25 -0.421875q-0.421875 0 -0.9375 0.328125q-0.5 0.3125 -0.734375 0.6875l0 7.015625l-2.265625 0l0 -9.75l1.5625 0l0.46875 0.84375q0.9375 -1.03125 2.453125 -1.03125q1.9375 0 2.921875 1.0625q0.421875 -0.484375 1.1875 -0.765625q0.765625 -0.296875 1.53125 -0.296875q1.625 0 2.53125 0.9375q0.90625 0.921875 0.90625 2.5625l0 6.4375l-2.265625 0zm6.51709 -13.53125q0.546875 0 0.9375 0.390625q0.390625 0.375 0.390625 0.921875q0 0.546875 -0.390625 0.9375q-0.390625 0.390625 -0.9375 0.390625q-0.546875 0 -0.9375 -0.390625q-0.390625 -0.390625 -0.390625 -0.9375q0 -0.546875 0.390625 -0.921875q0.390625 -0.390625 0.9375 -0.390625zm-1.171875 13.53125l0 -7.890625l-1.25 0l0 -1.859375l3.546875 0l0 9.75l-2.296875 0zm5.347168 -13.390625l2.28125 -0.546875l0 10.96875q0 1.796875 1.0625 2.15625q-0.515625 1.0 -1.796875 1.0q-1.546875 0 -1.546875 -2.15625l0 -11.421875zm6.892761 -0.140625q0.546875 0 0.9375 0.390625q0.390625 0.375 0.390625 0.921875q0 0.546875 -0.390625 0.9375q-0.390625 0.390625 -0.9375 0.390625q-0.546875 0 -0.9375 -0.390625q-0.390625 -0.390625 -0.390625 -0.9375q0 -0.546875 0.390625 -0.921875q0.390625 -0.390625 0.9375 -0.390625zm-1.171875 13.53125l0 -7.890625l-1.25 0l0 -1.859375l3.546875 0l0 9.75l-2.296875 0zm11.190887 0l-2.875 -4.421875l-1.09375 1.15625l0 3.265625l-2.265625 0l0 -13.390625l2.265625 -0.546875l0 7.921875l3.265625 -3.734375l2.734375 0l-3.296875 3.6875l3.96875 6.0625l-2.703125 0zm9.408356 -0.96875q-0.3125 0.5 -1.078125 0.828125q-0.765625 0.328125 -1.609375 0.328125q-1.578125 0 -2.484375 -0.78125q-0.890625 -0.796875 -0.890625 -2.25q0 -1.6875 1.265625 -2.640625q1.28125 -0.96875 3.609375 -0.96875q0.40625 0 0.953125 0.140625q0 -1.71875 -2.171875 -1.71875q-1.296875 0 -2.15625 0.421875l-0.484375 -1.765625q1.171875 -0.5625 2.796875 -0.5625q2.21875 0 3.25 1.015625q1.046875 1.015625 1.046875 3.84375l0 2.09375q0 1.953125 0.78125 2.453125q-0.28125 0.484375 -0.625 0.59375q-0.34375 0.125 -0.78125 0.125q-0.5 0 -0.890625 -0.359375q-0.390625 -0.375 -0.53125 -0.796875zm-0.21875 -3.625q-0.578125 -0.109375 -0.875 -0.109375q-2.6875 0 -2.6875 1.765625q0 1.3125 1.515625 1.3125q2.046875 0 2.046875 -2.0625l0 -0.90625zm11.000977 4.59375l0 -5.640625q0 -1.25 -0.484375 -1.8125q-0.46875 -0.578125 -1.546875 -0.578125q-0.5 0 -1.078125 0.28125q-0.5625 0.28125 -0.890625 0.703125l0 7.046875l-2.265625 0l0 -9.75l1.640625 0l0.40625 0.90625q0.9375 -1.09375 2.75 -1.09375q1.734375 0 2.734375 1.046875q1.015625 1.03125 1.015625 2.90625l0 5.984375l-2.28125 0z" fill-rule="nonzero"/><path fill="#4285f4" d="m362.0 357.97113l0 0c0 -6.357788 5.154022 -11.51181 11.51181 -11.51181l0 0c3.053131 0 5.981201 1.2128601 8.140076 3.3717346c2.1588745 2.1588745 3.3717346 5.0869446 3.3717346 8.140076l0 0c0 6.357788 -5.154022 11.51181 -11.51181 11.51181l0 0c-6.357788 0 -11.51181 -5.154022 -11.51181 -11.51181z" fill-rule="evenodd"/><path stroke="#4285f4" stroke-width="1.0" stroke-linejoin="round" stroke-linecap="butt" d="m362.0 357.97113l0 0c0 -6.357788 5.154022 -11.51181 11.51181 -11.51181l0 0c3.053131 0 5.981201 1.2128601 8.140076 3.3717346c2.1588745 2.1588745 3.3717346 5.0869446 3.3717346 8.140076l0 0c0 6.357788 -5.154022 11.51181 -11.51181 11.51181l0 0c-6.357788 0 -11.51181 -5.154022 -11.51181 -11.51181z" fill-rule="evenodd"/><path fill="#000000" fill-opacity="0.0" d="m504.3727 177.16798l192.25198 0l0 64.62991l-192.25198 0z" fill-rule="evenodd"/><path fill="#33bb33" d="m527.1852 204.1036l-2.296875 0l-1.390625 -7.203125l-2.6875 7.375l-0.84375 0l-2.6875 -7.375l-1.4375 7.203125l-2.28125 0l2.6875 -13.359375l1.25 0l2.890625 8.984375l2.828125 -8.984375l1.25 0l2.71875 13.359375zm10.026123 -4.203125l-6.96875 0q0.0625 1.171875 0.796875 1.828125q0.75 0.640625 1.984375 0.640625q1.5625 0 2.375 -0.8125l0.890625 1.734375q-1.203125 0.984375 -3.59375 0.984375q-2.234375 0 -3.53125 -1.3125q-1.296875 -1.3125 -1.296875 -3.640625q0 -2.3125 1.421875 -3.734375q1.421875 -1.4375 3.421875 -1.4375q2.125 0 3.40625 1.265625q1.28125 1.265625 1.28125 3.21875q0 0.421875 -0.1875 1.265625zm-6.890625 -1.703125l4.796875 0q-0.234375 -2.140625 -2.375 -2.140625q-1.9375 0 -2.421875 2.140625zm9.299988 -7.5l2.28125 -0.546875l0 10.96875q0 1.796875 1.0625 2.15625q-0.515625 1.0 -1.796875 1.0q-1.546875 0 -1.546875 -2.15625l0 -11.421875zm13.814636 9.203125l-6.96875 0q0.0625 1.171875 0.796875 1.828125q0.75 0.640625 1.984375 0.640625q1.5625 0 2.375 -0.8125l0.890625 1.734375q-1.203125 0.984375 -3.59375 0.984375q-2.234375 0 -3.53125 -1.3125q-1.296875 -1.3125 -1.296875 -3.640625q0 -2.3125 1.421875 -3.734375q1.421875 -1.4375 3.421875 -1.4375q2.125 0 3.40625 1.265625q1.28125 1.265625 1.28125 3.21875q0 0.421875 -0.1875 1.265625zm-6.890625 -1.703125l4.796875 0q-0.234375 -2.140625 -2.375 -2.140625q-1.9375 0 -2.421875 2.140625zm15.174988 5.890625l0 -5.640625q0 -1.25 -0.484375 -1.8125q-0.46875 -0.578125 -1.546875 -0.578125q-0.5 0 -1.078125 0.28125q-0.5625 0.28125 -0.890625 0.703125l0 7.046875l-2.265625 0l0 -9.75l1.640625 0l0.40625 0.90625q0.9375 -1.09375 2.75 -1.09375q1.734375 0 2.734375 1.046875q1.015625 1.03125 1.015625 2.90625l0 5.984375l-2.28125 0zm4.0134277 2.5l1.4375 -1.765625q1.203125 1.09375 2.65625 1.09375q0.984375 0 1.625 -0.296875q0.640625 -0.296875 0.640625 -0.796875q0 -0.875 -1.40625 -0.875q-0.390625 0 -1.15625 0.09375q-0.75 0.09375 -1.125 0.09375q-2.359375 0 -2.359375 -1.6875q0 -0.484375 0.390625 -0.9375q0.40625 -0.46875 0.921875 -0.6875q-1.671875 -1.09375 -1.671875 -3.078125q0 -1.5625 1.140625 -2.578125q1.15625 -1.03125 2.828125 -1.03125q1.3125 0 2.203125 0.484375l0.890625 -1.03125l1.578125 1.421875l-1.09375 0.796875q0.578125 0.859375 0.578125 2.015625q0 1.671875 -1.015625 2.671875q-1.015625 1.0 -2.578125 1.0q-0.234375 0 -0.640625 -0.046875l-0.375 -0.0625q-0.0625 0 -0.5 0.203125q-0.421875 0.1875 -0.421875 0.40625q0 0.359375 0.640625 0.359375q0.28125 0 0.9375 -0.125q0.671875 -0.140625 1.140625 -0.140625q3.328125 0 3.328125 2.671875q0 1.46875 -1.328125 2.3125q-1.328125 0.84375 -3.203125 0.84375q-2.25 0 -4.0625 -1.328125zm2.28125 -8.828125q0 0.859375 0.46875 1.390625q0.484375 0.515625 1.296875 0.515625q0.8125 0 1.25 -0.5q0.4375 -0.515625 0.4375 -1.40625q0 -0.734375 -0.46875 -1.25q-0.46875 -0.515625 -1.21875 -0.515625q-0.78125 0 -1.28125 0.5q-0.484375 0.484375 -0.484375 1.265625zm14.052063 6.328125l-2.875 -4.421875l-1.09375 1.15625l0 3.265625l-2.265625 0l0 -13.390625l2.265625 -0.546875l0 7.921875l3.265625 -3.734375l2.734375 0l-3.296875 3.6875l3.96875 6.0625l-2.703125 0zm9.408325 -0.96875q-0.3125 0.5 -1.078125 0.828125q-0.765625 0.328125 -1.609375 0.328125q-1.578125 0 -2.484375 -0.78125q-0.890625 -0.796875 -0.890625 -2.25q0 -1.6875 1.265625 -2.640625q1.28125 -0.96875 3.609375 -0.96875q0.40625 0 0.953125 0.140625q0 -1.71875 -2.171875 -1.71875q-1.296875 0 -2.15625 0.421875l-0.484375 -1.765625q1.171875 -0.5625 2.796875 -0.5625q2.21875 0 3.25 1.015625q1.046875 1.015625 1.046875 3.84375l0 2.09375q0 1.953125 0.78125 2.453125q-0.28125 0.484375 -0.625 0.59375q-0.34375 0.125 -0.78125 0.125q-0.5 0 -0.890625 -0.359375q-0.390625 -0.375 -0.53125 -0.796875zm-0.21875 -3.625q-0.578125 -0.109375 -0.875 -0.109375q-2.6875 0 -2.6875 1.765625q0 1.3125 1.515625 1.3125q2.046875 0 2.046875 -2.0625l0 -0.90625zm6.8291016 4.34375l0 4.078125l-2.28125 0l0 -13.578125l2.28125 0l0 0.65625q0.859375 -0.84375 2.09375 -0.84375q4.671875 0 4.671875 5.140625q0 2.390625 -1.296875 3.6875q-1.28125 1.296875 -3.515625 1.296875q-1.078125 0 -1.953125 -0.4375zm0 -7.125l0 5.140625q0.609375 0.5 1.4375 0.5q1.578125 0 2.265625 -0.75q0.6875 -0.765625 0.6875 -2.375q0 -1.734375 -0.6875 -2.4375q-0.671875 -0.703125 -2.25 -0.703125q-0.8125 0 -1.453125 0.625zm10.555115 -6.15625q0.546875 0 0.9375 0.390625q0.390625 0.375 0.390625 0.921875q0 0.546875 -0.390625 0.9375q-0.390625 0.390625 -0.9375 0.390625q-0.546875 0 -0.9375 -0.390625q-0.390625 -0.390625 -0.390625 -0.9375q0 -0.546875 0.390625 -0.921875q0.390625 -0.390625 0.9375 -0.390625zm-1.171875 13.53125l0 -7.890625l-1.25 0l0 -1.859375l3.546875 0l0 9.75l-2.296875 0z" fill-rule="nonzero"/><path fill="#33bb33" d="m518.8258 226.48798l-4.09375 0l0 -13.34375q2.703125 -0.125 3.78125 -0.125q2.078125 0 3.25 0.890625q1.171875 0.890625 1.171875 2.546875q0 1.578125 -1.671875 2.5q2.484375 0.859375 2.484375 3.5625q0 1.828125 -1.375 2.90625q-1.375 1.0625 -3.546875 1.0625zm-1.71875 -11.4375l0 3.1875q0.546875 0.046875 1.140625 0.046875q2.328125 0 2.328125 -1.75q0 -1.53125 -2.109375 -1.53125q-0.5625 0 -1.359375 0.046875zm0 5.046875l0 4.40625q0.71875 0.0625 1.171875 0.0625q1.578125 0 2.296875 -0.53125q0.71875 -0.546875 0.71875 -1.796875q0 -1.140625 -0.671875 -1.65625q-0.65625 -0.515625 -2.328125 -0.515625q-0.34375 0 -1.1875 0.03125zm17.307617 2.203125l-6.96875 0q0.0625 1.171875 0.796875 1.828125q0.75 0.640625 1.984375 0.640625q1.5625 0 2.375 -0.8125l0.890625 1.734375q-1.203125 0.984375 -3.59375 0.984375q-2.234375 0 -3.53125 -1.3125q-1.296875 -1.3125 -1.296875 -3.640625q0 -2.3125 1.421875 -3.734375q1.421875 -1.4375 3.421875 -1.4375q2.125 0 3.40625 1.265625q1.28125 1.265625 1.28125 3.21875q0 0.421875 -0.1875 1.265625zm-6.890625 -1.703125l4.796875 0q-0.234375 -2.140625 -2.375 -2.140625q-1.9375 0 -2.421875 2.140625zm14.549988 -1.75q-0.609375 -0.390625 -1.34375 -0.390625q-0.796875 0 -1.421875 0.71875q-0.609375 0.71875 -0.609375 1.75l0 5.5625l-2.265625 0l0 -9.75l2.265625 0l0 0.890625q0.96875 -1.078125 2.546875 -1.078125q1.171875 0 1.78125 0.359375l-0.953125 1.9375zm8.564575 7.640625l-2.875 -4.421875l-1.09375 1.15625l0 3.265625l-2.265625 0l0 -13.390625l2.265625 -0.546875l0 7.921875l3.265625 -3.734375l2.734375 0l-3.296875 3.6875l3.96875 6.0625l-2.703125 0zm9.408386 -0.96875q-0.3125 0.5 -1.078125 0.828125q-0.765625 0.328125 -1.609375 0.328125q-1.578125 0 -2.484375 -0.78125q-0.890625 -0.796875 -0.890625 -2.25q0 -1.6875 1.265625 -2.640625q1.28125 -0.96875 3.609375 -0.96875q0.40625 0 0.953125 0.140625q0 -1.71875 -2.171875 -1.71875q-1.296875 0 -2.15625 0.421875l-0.484375 -1.765625q1.171875 -0.5625 2.796875 -0.5625q2.21875 0 3.25 1.015625q1.046875 1.015625 1.046875 3.84375l0 2.09375q0 1.953125 0.78125 2.453125q-0.28125 0.484375 -0.625 0.59375q-0.34375 0.125 -0.78125 0.125q-0.5 0 -0.890625 -0.359375q-0.390625 -0.375 -0.53125 -0.796875zm-0.21875 -3.625q-0.578125 -0.109375 -0.875 -0.109375q-2.6875 0 -2.6875 1.765625q0 1.3125 1.515625 1.3125q2.046875 0 2.046875 -2.0625l0 -0.90625zm4.1259155 3.96875l0.8125 -1.8125q1.015625 0.8125 2.3125 0.8125q1.328125 0 1.328125 -0.953125q0 -0.5625 -0.40625 -0.90625q-0.40625 -0.359375 -1.5625 -0.84375q-2.515625 -1.046875 -2.515625 -2.9375q0 -1.265625 0.953125 -1.96875q0.96875 -0.703125 2.484375 -0.703125q1.515625 0 2.859375 0.6875l-0.65625 1.765625q-0.75 -0.640625 -2.078125 -0.640625q-1.203125 0 -1.203125 0.953125q0 0.359375 0.390625 0.671875q0.40625 0.296875 1.6875 0.8125q1.28125 0.5 1.84375 1.21875q0.5625 0.71875 0.5625 1.734375q0 1.359375 -1.015625 2.140625q-1.0 0.78125 -2.71875 0.78125q-0.984375 0 -1.578125 -0.171875q-0.578125 -0.15625 -1.5 -0.640625zm16.764526 -4.28125l0 4.90625l-2.375 0l0 -13.34375q2.375 -0.09375 2.78125 -0.09375q3.15625 0 4.609375 0.96875q1.46875 0.96875 1.46875 3.03125q0 4.59375 -5.40625 4.59375q-0.40625 0 -1.078125 -0.0625zm0 -6.375l0 4.265625q0.609375 0.0625 0.953125 0.0625q1.609375 0 2.359375 -0.53125q0.75 -0.546875 0.75 -1.765625q0 -2.078125 -3.34375 -2.078125q-0.375 0 -0.71875 0.046875zm17.152771 7.09375l-6.96875 0q0.0625 1.171875 0.796875 1.828125q0.75 0.640625 1.984375 0.640625q1.5625 0 2.375 -0.8125l0.890625 1.734375q-1.203125 0.984375 -3.59375 0.984375q-2.234375 0 -3.53125 -1.3125q-1.296875 -1.3125 -1.296875 -3.640625q0 -2.3125 1.421875 -3.734375q1.421875 -1.4375 3.421875 -1.4375q2.125 0 3.40625 1.265625q1.28125 1.265625 1.28125 3.21875q0 0.421875 -0.1875 1.265625zm-6.890625 -1.703125l4.796875 0q-0.234375 -2.140625 -2.375 -2.140625q-1.9375 0 -2.421875 2.140625zm20.206238 5.890625l0 -6.109375q0 -1.921875 -1.734375 -1.921875q-0.5 0 -0.984375 0.296875q-0.46875 0.296875 -0.65625 0.6875l0 7.046875l-2.28125 0l0 -6.46875q0 -0.71875 -0.453125 -1.140625q-0.4375 -0.421875 -1.25 -0.421875q-0.421875 0 -0.9375 0.328125q-0.5 0.3125 -0.734375 0.6875l0 7.015625l-2.265625 0l0 -9.75l1.5625 0l0.46875 0.84375q0.9375 -1.03125 2.453125 -1.03125q1.9375 0 2.921875 1.0625q0.421875 -0.484375 1.1875 -0.765625q0.765625 -0.296875 1.53125 -0.296875q1.625 0 2.53125 0.9375q0.90625 0.921875 0.90625 2.5625l0 6.4375l-2.265625 0zm10.157715 -0.96875q-0.3125 0.5 -1.078125 0.828125q-0.765625 0.328125 -1.609375 0.328125q-1.578125 0 -2.484375 -0.78125q-0.890625 -0.796875 -0.890625 -2.25q0 -1.6875 1.265625 -2.640625q1.28125 -0.96875 3.609375 -0.96875q0.40625 0 0.953125 0.140625q0 -1.71875 -2.171875 -1.71875q-1.296875 0 -2.15625 0.421875l-0.484375 -1.765625q1.171875 -0.5625 2.796875 -0.5625q2.21875 0 3.25 1.015625q1.046875 1.015625 1.046875 3.84375l0 2.09375q0 1.953125 0.78125 2.453125q-0.28125 0.484375 -0.625 0.59375q-0.34375 0.125 -0.78125 0.125q-0.5 0 -0.890625 -0.359375q-0.390625 -0.375 -0.53125 -0.796875zm-0.21875 -3.625q-0.578125 -0.109375 -0.875 -0.109375q-2.6875 0 -2.6875 1.765625q0 1.3125 1.515625 1.3125q2.046875 0 2.046875 -2.0625l0 -0.90625zm4.1259766 3.96875l0.8125 -1.8125q1.015625 0.8125 2.3125 0.8125q1.328125 0 1.328125 -0.953125q0 -0.5625 -0.40625 -0.90625q-0.40625 -0.359375 -1.5625 -0.84375q-2.515625 -1.046875 -2.515625 -2.9375q0 -1.265625 0.953125 -1.96875q0.96875 -0.703125 2.484375 -0.703125q1.515625 0 2.859375 0.6875l-0.65625 1.765625q-0.75 -0.640625 -2.078125 -0.640625q-1.203125 0 -1.203125 0.953125q0 0.359375 0.390625 0.671875q0.40625 0.296875 1.6875 0.8125q1.28125 0.5 1.84375 1.21875q0.5625 0.71875 0.5625 1.734375q0 1.359375 -1.015625 2.140625q-1.0 0.78125 -2.71875 0.78125q-0.984375 0 -1.578125 -0.171875q-0.578125 -0.15625 -1.5 -0.640625zm14.065796 -0.34375q-0.3125 0.5 -1.078125 0.828125q-0.765625 0.328125 -1.609375 0.328125q-1.578125 0 -2.484375 -0.78125q-0.890625 -0.796875 -0.890625 -2.25q0 -1.6875 1.265625 -2.640625q1.28125 -0.96875 3.609375 -0.96875q0.40625 0 0.953125 0.140625q0 -1.71875 -2.171875 -1.71875q-1.296875 0 -2.15625 0.421875l-0.484375 -1.765625q1.171875 -0.5625 2.796875 -0.5625q2.21875 0 3.25 1.015625q1.046875 1.015625 1.046875 3.84375l0 2.09375q0 1.953125 0.78125 2.453125q-0.28125 0.484375 -0.625 0.59375q-0.34375 0.125 -0.78125 0.125q-0.5 0 -0.890625 -0.359375q-0.390625 -0.375 -0.53125 -0.796875zm-0.21875 -3.625q-0.578125 -0.109375 -0.875 -0.109375q-2.6875 0 -2.6875 1.765625q0 1.3125 1.515625 1.3125q2.046875 0 2.046875 -2.0625l0 -0.90625zm11.000977 4.59375l0 -5.640625q0 -1.25 -0.484375 -1.8125q-0.46875 -0.578125 -1.546875 -0.578125q-0.5 0 -1.078125 0.28125q-0.5625 0.28125 -0.890625 0.703125l0 7.046875l-2.265625 0l0 -9.75l1.640625 0l0.40625 0.90625q0.9375 -1.09375 2.75 -1.09375q1.734375 0 2.734375 1.046875q1.015625 1.03125 1.015625 2.90625l0 5.984375l-2.28125 0zm4.0133667 2.5l1.4375 -1.765625q1.203125 1.09375 2.65625 1.09375q0.984375 0 1.625 -0.296875q0.640625 -0.296875 0.640625 -0.796875q0 -0.875 -1.40625 -0.875q-0.390625 0 -1.15625 0.09375q-0.75 0.09375 -1.125 0.09375q-2.359375 0 -2.359375 -1.6875q0 -0.484375 0.390625 -0.9375q0.40625 -0.46875 0.921875 -0.6875q-1.671875 -1.09375 -1.671875 -3.078125q0 -1.5625 1.140625 -2.578125q1.15625 -1.03125 2.828125 -1.03125q1.3125 0 2.203125 0.484375l0.890625 -1.03125l1.578125 1.421875l-1.09375 0.796875q0.578125 0.859375 0.578125 2.015625q0 1.671875 -1.015625 2.671875q-1.015625 1.0 -2.578125 1.0q-0.234375 0 -0.640625 -0.046875l-0.375 -0.0625q-0.0625 0 -0.5 0.203125q-0.421875 0.1875 -0.421875 0.40625q0 0.359375 0.640625 0.359375q0.28125 0 0.9375 -0.125q0.671875 -0.140625 1.140625 -0.140625q3.328125 0 3.328125 2.671875q0 1.46875 -1.328125 2.3125q-1.328125 0.84375 -3.203125 0.84375q-2.25 0 -4.0625 -1.328125zm2.28125 -8.828125q0 0.859375 0.46875 1.390625q0.484375 0.515625 1.296875 0.515625q0.8125 0 1.25 -0.5q0.4375 -0.515625 0.4375 -1.40625q0 -0.734375 -0.46875 -1.25q-0.46875 -0.515625 -1.21875 -0.515625q-0.78125 0 -1.28125 0.5q-0.484375 0.484375 -0.484375 1.265625zm13.239563 5.359375q-0.3125 0.5 -1.078125 0.828125q-0.765625 0.328125 -1.609375 0.328125q-1.578125 0 -2.484375 -0.78125q-0.890625 -0.796875 -0.890625 -2.25q0 -1.6875 1.265625 -2.640625q1.28125 -0.96875 3.609375 -0.96875q0.40625 0 0.953125 0.140625q0 -1.71875 -2.171875 -1.71875q-1.296875 0 -2.15625 0.421875l-0.484375 -1.765625q1.171875 -0.5625 2.796875 -0.5625q2.21875 0 3.25 1.015625q1.046875 1.015625 1.046875 3.84375l0 2.09375q0 1.953125 0.78125 2.453125q-0.28125 0.484375 -0.625 0.59375q-0.34375 0.125 -0.78125 0.125q-0.5 0 -0.890625 -0.359375q-0.390625 -0.375 -0.53125 -0.796875zm-0.21875 -3.625q-0.578125 -0.109375 -0.875 -0.109375q-2.6875 0 -2.6875 1.765625q0 1.3125 1.515625 1.3125q2.046875 0 2.046875 -2.0625l0 -0.90625zm11.000977 4.59375l0 -5.640625q0 -1.25 -0.484375 -1.8125q-0.46875 -0.578125 -1.546875 -0.578125q-0.5 0 -1.078125 0.28125q-0.5625 0.28125 -0.890625 0.703125l0 7.046875l-2.265625 0l0 -9.75l1.640625 0l0.40625 0.90625q0.9375 -1.09375 2.75 -1.09375q1.734375 0 2.734375 1.046875q1.015625 1.03125 1.015625 2.90625l0 5.984375l-2.28125 0z" fill-rule="nonzero"/><path fill="#000000" fill-opacity="0.0" d="m368.8714 34.39895l169.19684 0l0 42.015747l-169.19684 0z" fill-rule="evenodd"/><path fill="#eeff41" d="m391.4144 61.318947l-3.5625 -5.515625q-0.53125 0 -1.5 -0.0625l0 5.578125l-2.46875 0l0 -13.34375q0.203125 0 1.546875 -0.0625q1.34375 -0.078125 2.15625 -0.078125q5.078125 0 5.078125 3.9375q0 1.1875 -0.703125 2.171875q-0.6875 0.96875 -1.765625 1.359375l3.953125 6.015625l-2.734375 0zm-5.0625 -11.28125l0 3.703125q0.65625 0.046875 1.0 0.046875q1.484375 0 2.171875 -0.40625q0.6875 -0.421875 0.6875 -1.640625q0 -0.984375 -0.734375 -1.375q-0.734375 -0.390625 -2.328125 -0.390625q-0.375 0 -0.796875 0.0625zm17.50534 7.09375l-6.96875 0q0.0625 1.171875 0.796875 1.828125q0.75 0.640625 1.984375 0.640625q1.5625 0 2.375 -0.8125l0.890625 1.734375q-1.203125 0.984375 -3.59375 0.984375q-2.234375 0 -3.53125 -1.3125q-1.296875 -1.3125 -1.296875 -3.640625q0 -2.3125 1.421875 -3.734375q1.421875 -1.4375 3.421875 -1.4375q2.125 0 3.40625 1.265625q1.28125 1.265625 1.28125 3.21875q0 0.421875 -0.1875 1.265625zm-6.890625 -1.703125l4.796875 0q-0.234375 -2.140625 -2.375 -2.140625q-1.9375 0 -2.421875 2.140625zm8.175018 8.390625l1.4375 -1.765625q1.203125 1.09375 2.65625 1.09375q0.984375 0 1.625 -0.296875q0.640625 -0.296875 0.640625 -0.796875q0 -0.875 -1.40625 -0.875q-0.390625 0 -1.15625 0.09375q-0.75 0.09375 -1.125 0.09375q-2.359375 0 -2.359375 -1.6875q0 -0.484375 0.390625 -0.9375q0.40625 -0.46875 0.921875 -0.6875q-1.671875 -1.09375 -1.671875 -3.078125q0 -1.5625 1.140625 -2.578125q1.15625 -1.03125 2.828125 -1.03125q1.3125 0 2.203125 0.484375l0.890625 -1.03125l1.578125 1.421875l-1.09375 0.796875q0.578125 0.859375 0.578125 2.015625q0 1.671875 -1.015625 2.671875q-1.015625 1.0 -2.578125 1.0q-0.234375 0 -0.640625 -0.046875l-0.375 -0.0625q-0.0625 0 -0.5 0.203125q-0.421875 0.1875 -0.421875 0.40625q0 0.359375 0.640625 0.359375q0.28125 0 0.9375 -0.125q0.671875 -0.140625 1.140625 -0.140625q3.328125 0 3.328125 2.671875q0 1.46875 -1.328125 2.3125q-1.328125 0.84375 -3.203125 0.84375q-2.25 0 -4.0625 -1.328125zm2.28125 -8.828125q0 0.859375 0.46875 1.390625q0.484375 0.515625 1.296875 0.515625q0.8125 0 1.25 -0.5q0.4375 -0.515625 0.4375 -1.40625q0 -0.734375 -0.46875 -1.25q-0.46875 -0.515625 -1.21875 -0.515625q-0.78125 0 -1.28125 0.5q-0.484375 0.484375 -0.484375 1.265625zm9.598938 -7.203125q0.546875 0 0.9375 0.390625q0.390625 0.375 0.390625 0.921875q0 0.546875 -0.390625 0.9375q-0.390625 0.390625 -0.9375 0.390625q-0.546875 0 -0.9375 -0.390625q-0.390625 -0.390625 -0.390625 -0.9375q0 -0.546875 0.390625 -0.921875q0.390625 -0.390625 0.9375 -0.390625zm-1.171875 13.53125l0 -7.890625l-1.25 0l0 -1.859375l3.546875 0l0 9.75l-2.296875 0zm4.3471375 -0.625l0.8125 -1.8125q1.015625 0.8125 2.3125 0.8125q1.328125 0 1.328125 -0.953125q0 -0.5625 -0.40625 -0.90625q-0.40625 -0.359375 -1.5625 -0.84375q-2.515625 -1.046875 -2.515625 -2.9375q0 -1.265625 0.953125 -1.96875q0.96875 -0.703125 2.484375 -0.703125q1.515625 0 2.859375 0.6875l-0.65625 1.765625q-0.75 -0.640625 -2.078125 -0.640625q-1.203125 0 -1.203125 0.953125q0 0.359375 0.390625 0.671875q0.40625 0.296875 1.6875 0.8125q1.28125 0.5 1.84375 1.21875q0.5625 0.71875 0.5625 1.734375q0 1.359375 -1.015625 2.140625q-1.0 0.78125 -2.71875 0.78125q-0.984375 0 -1.578125 -0.171875q-0.578125 -0.15625 -1.5 -0.640625zm8.987701 -7.296875l-1.125 0l0 -1.828125l1.125 0l0 -1.984375l2.28125 -0.84375l0 2.828125l2.671875 0l0 1.828125l-2.671875 0l0 4.265625q0 1.046875 0.328125 1.484375q0.328125 0.4375 1.140625 0.4375q0.828125 0 1.53125 -0.453125l0 2.09375q-0.796875 0.28125 -2.265625 0.28125q-1.453125 0 -2.234375 -0.828125q-0.78125 -0.828125 -0.78125 -2.34375l0 -4.9375zm12.693787 0.28125q-0.609375 -0.390625 -1.34375 -0.390625q-0.796875 0 -1.421875 0.71875q-0.609375 0.71875 -0.609375 1.75l0 5.5625l-2.265625 0l0 -9.75l2.265625 0l0 0.890625q0.96875 -1.078125 2.546875 -1.078125q1.171875 0 1.78125 0.359375l-0.953125 1.9375zm7.752075 6.671875q-0.3125 0.5 -1.078125 0.828125q-0.765625 0.328125 -1.609375 0.328125q-1.578125 0 -2.484375 -0.78125q-0.890625 -0.796875 -0.890625 -2.25q0 -1.6875 1.265625 -2.640625q1.28125 -0.96875 3.609375 -0.96875q0.40625 0 0.953125 0.140625q0 -1.71875 -2.171875 -1.71875q-1.296875 0 -2.15625 0.421875l-0.484375 -1.765625q1.171875 -0.5625 2.796875 -0.5625q2.21875 0 3.25 1.015625q1.046875 1.015625 1.046875 3.84375l0 2.09375q0 1.953125 0.78125 2.453125q-0.28125 0.484375 -0.625 0.59375q-0.34375 0.125 -0.78125 0.125q-0.5 0 -0.890625 -0.359375q-0.390625 -0.375 -0.53125 -0.796875zm-0.21875 -3.625q-0.578125 -0.109375 -0.875 -0.109375q-2.6875 0 -2.6875 1.765625q0 1.3125 1.515625 1.3125q2.046875 0 2.046875 -2.0625l0 -0.90625zm4.125946 3.96875l0.8125 -1.8125q1.015625 0.8125 2.3125 0.8125q1.328125 0 1.328125 -0.953125q0 -0.5625 -0.40625 -0.90625q-0.40625 -0.359375 -1.5625 -0.84375q-2.515625 -1.046875 -2.515625 -2.9375q0 -1.265625 0.953125 -1.96875q0.96875 -0.703125 2.484375 -0.703125q1.515625 0 2.859375 0.6875l-0.65625 1.765625q-0.75 -0.640625 -2.078125 -0.640625q-1.203125 0 -1.203125 0.953125q0 0.359375 0.390625 0.671875q0.40625 0.296875 1.6875 0.8125q1.28125 0.5 1.84375 1.21875q0.5625 0.71875 0.5625 1.734375q0 1.359375 -1.015625 2.140625q-1.0 0.78125 -2.71875 0.78125q-0.984375 0 -1.578125 -0.171875q-0.578125 -0.15625 -1.5 -0.640625zm10.425201 -12.90625q0.546875 0 0.9375 0.390625q0.390625 0.375 0.390625 0.921875q0 0.546875 -0.390625 0.9375q-0.390625 0.390625 -0.9375 0.390625q-0.546875 0 -0.9375 -0.390625q-0.390625 -0.390625 -0.390625 -0.9375q0 -0.546875 0.390625 -0.921875q0.390625 -0.390625 0.9375 -0.390625zm-1.171875 13.53125l0 -7.890625l-1.25 0l0 -1.859375l3.546875 0l0 9.75l-2.296875 0zm10.077087 -6.78125q0 -2.859375 1.5625 -4.828125q1.5625 -1.96875 4.171875 -1.96875q2.875 0 4.390625 1.78125q1.53125 1.78125 1.53125 5.015625q0 3.21875 -1.59375 5.125q-1.59375 1.890625 -4.515625 1.890625q-2.6875 0 -4.125 -1.875q-1.421875 -1.890625 -1.421875 -5.140625zm2.453125 0q0 2.328125 0.78125 3.625q0.796875 1.28125 2.3125 1.28125q1.78125 0 2.703125 -1.25q0.9375 -1.265625 0.9375 -3.65625q0 -4.703125 -3.453125 -4.703125q-1.59375 0 -2.4375 1.28125q-0.84375 1.265625 -0.84375 3.421875zm17.430176 6.78125l0 -5.640625q0 -1.25 -0.484375 -1.8125q-0.46875 -0.578125 -1.546875 -0.578125q-0.5 0 -1.078125 0.28125q-0.5625 0.28125 -0.890625 0.703125l0 7.046875l-2.265625 0l0 -9.75l1.640625 0l0.40625 0.90625q0.9375 -1.09375 2.75 -1.09375q1.734375 0 2.734375 1.046875q1.015625 1.03125 1.015625 2.90625l0 5.984375l-2.28125 0zm5.138397 -13.390625l2.28125 -0.546875l0 10.96875q0 1.796875 1.0625 2.15625q-0.515625 1.0 -1.796875 1.0q-1.546875 0 -1.546875 -2.15625l0 -11.421875zm6.892761 -0.140625q0.546875 0 0.9375 0.390625q0.390625 0.375 0.390625 0.921875q0 0.546875 -0.390625 0.9375q-0.390625 0.390625 -0.9375 0.390625q-0.546875 0 -0.9375 -0.390625q-0.390625 -0.390625 -0.390625 -0.9375q0 -0.546875 0.390625 -0.921875q0.390625 -0.390625 0.9375 -0.390625zm-1.171875 13.53125l0 -7.890625l-1.25 0l0 -1.859375l3.546875 0l0 9.75l-2.296875 0zm11.222168 0l0 -5.640625q0 -1.25 -0.484375 -1.8125q-0.46875 -0.578125 -1.546875 -0.578125q-0.5 0 -1.0781555 0.28125q-0.5625 0.28125 -0.890625 0.703125l0 7.046875l-2.265625 0l0 -9.75l1.640625 0l0.40625 0.90625q0.9375 -1.09375 2.7500305 -1.09375q1.734375 0 2.734375 1.046875q1.015625 1.03125 1.015625 2.90625l0 5.984375l-2.28125 0zm13.450867 -4.1875l-6.96875 0q0.0625 1.171875 0.796875 1.828125q0.75 0.640625 1.984375 0.640625q1.5625 0 2.375 -0.8125l0.890625 1.734375q-1.203125 0.984375 -3.59375 0.984375q-2.234375 0 -3.53125 -1.3125q-1.296875 -1.3125 -1.296875 -3.640625q0 -2.3125 1.421875 -3.734375q1.421875 -1.4375 3.421875 -1.4375q2.125 0 3.40625 1.265625q1.28125 1.265625 1.28125 3.21875q0 0.421875 -0.1875 1.265625zm-6.890625 -1.703125l4.796875 0q-0.234375 -2.140625 -2.375 -2.140625q-1.9375 0 -2.421875 2.140625z" fill-rule="nonzero"/><path fill="#000000" fill-opacity="0.0" d="m526.9816 319.02362l192.25195 0l0 64.62991l-192.25195 0z" fill-rule="evenodd"/><path fill="#cc4125" d="m549.7941 345.95926l-2.296875 0l-1.390625 -7.203125l-2.6875 7.375l-0.84375 0l-2.6875 -7.375l-1.4375 7.203125l-2.28125 0l2.6875 -13.359375l1.25 0l2.890625 8.984375l2.828125 -8.984375l1.25 0l2.71875 13.359375zm10.026062 -4.203125l-6.96875 0q0.0625 1.171875 0.796875 1.828125q0.75 0.640625 1.984375 0.640625q1.5625 0 2.375 -0.8125l0.890625 1.734375q-1.203125 0.984375 -3.59375 0.984375q-2.234375 0 -3.53125 -1.3125q-1.296875 -1.3125 -1.296875 -3.640625q0 -2.3125 1.421875 -3.734375q1.421875 -1.4375 3.421875 -1.4375q2.125 0 3.40625 1.265625q1.28125 1.265625 1.28125 3.21875q0 0.421875 -0.1875 1.265625zm-6.890625 -1.703125l4.796875 0q-0.234375 -2.140625 -2.375 -2.140625q-1.9375 0 -2.421875 2.140625zm15.175049 5.890625l0 -5.640625q0 -1.25 -0.484375 -1.8125q-0.46875 -0.578125 -1.546875 -0.578125q-0.5 0 -1.078125 0.28125q-0.5625 0.28125 -0.890625 0.703125l0 7.046875l-2.265625 0l0 -9.75l1.640625 0l0.40625 0.90625q0.9375 -1.09375 2.75 -1.09375q1.734375 0 2.734375 1.046875q1.015625 1.03125 1.015625 2.90625l0 5.984375l-2.28125 0zm9.060242 1.5625q-0.359375 0.984375 -1.5625 1.625q-1.203125 0.640625 -2.796875 0.640625l0 -2.015625q2.640625 0 2.640625 -1.328125q0 -0.859375 -0.734375 -2.671875l-3.046875 -7.5625l2.359375 0l2.65625 6.734375l2.390625 -6.734375l2.359375 0l-4.265625 11.3125zm11.06604 -2.53125q-0.3125 0.5 -1.078125 0.828125q-0.765625 0.328125 -1.609375 0.328125q-1.578125 0 -2.484375 -0.78125q-0.890625 -0.796875 -0.890625 -2.25q0 -1.6875 1.265625 -2.640625q1.28125 -0.96875 3.609375 -0.96875q0.40625 0 0.953125 0.140625q0 -1.71875 -2.171875 -1.71875q-1.296875 0 -2.15625 0.421875l-0.484375 -1.765625q1.171875 -0.5625 2.796875 -0.5625q2.21875 0 3.25 1.015625q1.046875 1.015625 1.046875 3.84375l0 2.09375q0 1.953125 0.78125 2.453125q-0.28125 0.484375 -0.625 0.59375q-0.34375 0.125 -0.78125 0.125q-0.5 0 -0.890625 -0.359375q-0.390625 -0.375 -0.53125 -0.796875zm-0.21875 -3.625q-0.578125 -0.109375 -0.875 -0.109375q-2.6875 0 -2.6875 1.765625q0 1.3125 1.515625 1.3125q2.046875 0 2.046875 -2.0625l0 -0.90625zm16.032227 4.59375l0 -6.109375q0 -1.921875 -1.734375 -1.921875q-0.5 0 -0.984375 0.296875q-0.46875 0.296875 -0.65625 0.6875l0 7.046875l-2.28125 0l0 -6.46875q0 -0.71875 -0.453125 -1.140625q-0.4375 -0.421875 -1.25 -0.421875q-0.421875 0 -0.9375 0.328125q-0.5 0.3125 -0.734375 0.6875l0 7.015625l-2.265625 0l0 -9.75l1.5625 0l0.46875 0.84375q0.9375 -1.03125 2.453125 -1.03125q1.9375 0 2.921875 1.0625q0.421875 -0.484375 1.1875 -0.765625q0.765625 -0.296875 1.53125 -0.296875q1.625 0 2.53125 0.9375q0.90625 0.921875 0.90625 2.5625l0 6.4375l-2.265625 0zm6.82959 -0.25l0 4.078125l-2.28125 0l0 -13.578125l2.28125 0l0 0.65625q0.859375 -0.84375 2.09375 -0.84375q4.671875 0 4.671875 5.140625q0 2.390625 -1.296875 3.6875q-1.28125 1.296875 -3.515625 1.296875q-1.078125 0 -1.953125 -0.4375zm0 -7.125l0 5.140625q0.609375 0.5 1.4375 0.5q1.578125 0 2.265625 -0.75q0.6875 -0.765625 0.6875 -2.375q0 -1.734375 -0.6875 -2.4375q-0.671875 -0.703125 -2.25 -0.703125q-0.8125 0 -1.453125 0.625zm14.19574 6.40625q-0.3125 0.5 -1.078125 0.828125q-0.765625 0.328125 -1.609375 0.328125q-1.578125 0 -2.484375 -0.78125q-0.890625 -0.796875 -0.890625 -2.25q0 -1.6875 1.265625 -2.640625q1.28125 -0.96875 3.609375 -0.96875q0.40625 0 0.953125 0.140625q0 -1.71875 -2.171875 -1.71875q-1.296875 0 -2.15625 0.421875l-0.484375 -1.765625q1.171875 -0.5625 2.796875 -0.5625q2.21875 0 3.25 1.015625q1.046875 1.015625 1.046875 3.84375l0 2.09375q0 1.953125 0.78125 2.453125q-0.28125 0.484375 -0.625 0.59375q-0.34375 0.125 -0.78125 0.125q-0.5 0 -0.890625 -0.359375q-0.390625 -0.375 -0.53125 -0.796875zm-0.21875 -3.625q-0.578125 -0.109375 -0.875 -0.109375q-2.6875 0 -2.6875 1.765625q0 1.3125 1.515625 1.3125q2.046875 0 2.046875 -2.0625l0 -0.90625zm6.5166016 -8.9375q0.546875 0 0.9375 0.390625q0.390625 0.375 0.390625 0.921875q0 0.546875 -0.390625 0.9375q-0.390625 0.390625 -0.9375 0.390625q-0.546875 0 -0.9375 -0.390625q-0.390625 -0.390625 -0.390625 -0.9375q0 -0.546875 0.390625 -0.921875q0.390625 -0.390625 0.9375 -0.390625zm-1.171875 13.53125l0 -7.890625l-1.25 0l0 -1.859375l3.546875 0l0 9.75l-2.296875 0zm11.190918 0l-2.875 -4.421875l-1.09375 1.15625l0 3.265625l-2.265625 0l0 -13.390625l2.265625 -0.546875l0 7.921875l3.265625 -3.734375l2.734375 0l-3.296875 3.6875l3.96875 6.0625l-2.703125 0zm9.408325 -0.96875q-0.3125 0.5 -1.078125 0.828125q-0.765625 0.328125 -1.609375 0.328125q-1.578125 0 -2.484375 -0.78125q-0.890625 -0.796875 -0.890625 -2.25q0 -1.6875 1.265625 -2.640625q1.28125 -0.96875 3.609375 -0.96875q0.40625 0 0.953125 0.140625q0 -1.71875 -2.171875 -1.71875q-1.296875 0 -2.15625 0.421875l-0.484375 -1.765625q1.171875 -0.5625 2.796875 -0.5625q2.21875 0 3.25 1.015625q1.046875 1.015625 1.046875 3.84375l0 2.09375q0 1.953125 0.78125 2.453125q-0.28125 0.484375 -0.625 0.59375q-0.34375 0.125 -0.78125 0.125q-0.5 0 -0.890625 -0.359375q-0.390625 -0.375 -0.53125 -0.796875zm-0.21875 -3.625q-0.578125 -0.109375 -0.875 -0.109375q-2.6875 0 -2.6875 1.765625q0 1.3125 1.515625 1.3125q2.046875 0 2.046875 -2.0625l0 -0.90625zm11.000977 4.59375l0 -5.640625q0 -1.25 -0.484375 -1.8125q-0.46875 -0.578125 -1.546875 -0.578125q-0.5 0 -1.078125 0.28125q-0.5625 0.28125 -0.890625 0.703125l0 7.046875l-2.265625 0l0 -9.75l1.640625 0l0.40625 0.90625q0.9375 -1.09375 2.75 -1.09375q1.734375 0 2.734375 1.046875q1.015625 1.03125 1.015625 2.90625l0 5.984375l-2.28125 0z" fill-rule="nonzero"/><path fill="#cc4125" d="m544.9191 368.34363l-3.71875 -5.6875l-1.484375 2.03125l0 3.65625l-2.375 0l0 -13.34375l2.375 0l0 6.390625l4.53125 -6.390625l2.703125 0l-4.1875 5.828125l4.984375 7.515625l-2.828125 0zm12.514404 -4.1875l-6.96875 0q0.0625 1.171875 0.796875 1.828125q0.75 0.640625 1.984375 0.640625q1.5625 0 2.375 -0.8125l0.890625 1.734375q-1.203125 0.984375 -3.59375 0.984375q-2.234375 0 -3.53125 -1.3125q-1.296875 -1.3125 -1.296875 -3.640625q0 -2.3125 1.421875 -3.734375q1.421875 -1.4375 3.421875 -1.4375q2.125 0 3.40625 1.265625q1.28125 1.265625 1.28125 3.21875q0 0.421875 -0.1875 1.265625zm-6.890625 -1.703125l4.796875 0q-0.234375 -2.140625 -2.375 -2.140625q-1.9375 0 -2.421875 2.140625zm9.299988 -7.5l2.28125 -0.546875l0 10.96875q0 1.796875 1.0625 2.15625q-0.515625 1.0 -1.796875 1.0q-1.546875 0 -1.546875 -2.15625l0 -11.421875zm11.392761 13.40625l0 -0.828125q-0.484375 0.40625 -1.328125 0.703125q-0.84375 0.296875 -1.5625 0.296875q-3.390625 0 -3.390625 -3.609375l0 -6.328125l2.265625 0l0 6.15625q0 1.875 1.6875 1.875q0.78125 0 1.4375 -0.390625q0.671875 -0.40625 0.890625 -0.9375l0 -6.703125l2.28125 0l0 9.765625l-2.28125 0zm11.053772 -0.015625l0 -6.015625q0 -0.90625 -0.578125 -1.4375q-0.5625 -0.546875 -1.46875 -0.546875q-0.5625 0 -1.140625 0.3125q-0.5625 0.296875 -0.8125 0.6875l0 7.0l-2.3125 0l0 -13.390625l2.3125 -0.546875l0 4.796875q0.875 -0.796875 2.421875 -0.796875q1.84375 0 2.84375 1.015625q1.015625 1.015625 1.015625 2.90625l0 6.015625l-2.28125 0zm10.168274 -0.96875q-0.3125 0.5 -1.078125 0.828125q-0.765625 0.328125 -1.609375 0.328125q-1.578125 0 -2.484375 -0.78125q-0.890625 -0.796875 -0.890625 -2.25q0 -1.6875 1.265625 -2.640625q1.28125 -0.96875 3.609375 -0.96875q0.40625 0 0.953125 0.140625q0 -1.71875 -2.171875 -1.71875q-1.296875 0 -2.15625 0.421875l-0.484375 -1.765625q1.171875 -0.5625 2.796875 -0.5625q2.21875 0 3.25 1.015625q1.046875 1.015625 1.046875 3.84375l0 2.09375q0 1.953125 0.78125 2.453125q-0.28125 0.484375 -0.625 0.59375q-0.34375 0.125 -0.78125 0.125q-0.5 0 -0.890625 -0.359375q-0.390625 -0.375 -0.53125 -0.796875zm-0.21875 -3.625q-0.578125 -0.109375 -0.875 -0.109375q-2.6875 0 -2.6875 1.765625q0 1.3125 1.515625 1.3125q2.046875 0 2.046875 -2.0625l0 -0.90625zm11.000977 4.59375l0 -5.640625q0 -1.25 -0.484375 -1.8125q-0.46875 -0.578125 -1.546875 -0.578125q-0.5 0 -1.078125 0.28125q-0.5625 0.28125 -0.890625 0.703125l0 7.046875l-2.265625 0l0 -9.75l1.640625 0l0.40625 0.90625q0.9375 -1.09375 2.75 -1.09375q1.734375 0 2.734375 1.046875q1.015625 1.03125 1.015625 2.90625l0 5.984375l-2.28125 0z" fill-rule="nonzero"/><path fill="#000000" fill-opacity="0.0" d="m269.2021 229.95538l150.89764 0l0 64.62991l-150.89764 0z" fill-rule="evenodd"/><path fill="#ffab40" d="m302.43582 244.23476l-0.984375 1.96875q-0.78125 -0.796875 -2.546875 -0.796875q-1.671875 0 -2.734375 1.40625q-1.0625 1.390625 -1.0625 3.53125q0 2.140625 0.984375 3.40625q1.0 1.25 2.640625 1.25q1.890625 0 2.953125 -1.34375l1.109375 1.90625q-1.453125 1.5468597 -4.25 1.5468597q-2.796875 0 -4.34375 -1.8437347q-1.546875 -1.84375 -1.546875 -5.015625q0 -2.96875 1.703125 -4.953125q1.71875 -2.0 4.40625 -2.0q2.296875 0 3.671875 0.9375zm10.83606 8.453125l-6.96875 0q0.0625 1.171875 0.796875 1.828125q0.75 0.640625 1.984375 0.640625q1.5625 0 2.375 -0.8125l0.890625 1.7343597q-1.203125 0.984375 -3.59375 0.984375q-2.234375 0 -3.53125 -1.3124847q-1.296875 -1.3125 -1.296875 -3.640625q0 -2.3125 1.421875 -3.734375q1.421875 -1.4375 3.421875 -1.4375q2.125 0 3.40625 1.265625q1.28125 1.265625 1.28125 3.21875q0 0.421875 -0.1875 1.265625zm-6.890625 -1.703125l4.796875 0q-0.234375 -2.140625 -2.375 -2.140625q-1.9375 0 -2.421875 2.140625zm15.143768 5.8906097l-2.875 -4.4218597l-1.09375 1.15625l0 3.2656097l-2.265625 0l0 -13.39061l2.265625 -0.546875l0 7.921875l3.265625 -3.734375l2.734375 0l-3.296875 3.6875l3.96875 6.0624847l-2.703125 0zm9.7789 0l0 -13.343735l2.375 0l0 13.343735l-2.375 0zm11.286163 0l0 -5.6406097q0 -1.25 -0.484375 -1.8125q-0.46875 -0.578125 -1.546875 -0.578125q-0.5 0 -1.078125 0.28125q-0.5625 0.28125 -0.890625 0.703125l0 7.0468597l-2.265625 0l0 -9.749985l1.640625 0l0.40625 0.90625q0.9375 -1.09375 2.75 -1.09375q1.734375 0 2.734375 1.046875q1.015625 1.03125 1.015625 2.90625l0 5.9843597l-2.28125 0zm10.185272 -11.67186q-0.75 -0.25 -1.15625 -0.25q-0.640625 0 -1.09375 0.5625q-0.453125 0.5625 -0.453125 1.359375q0 0.125 0.015625 0.25l2.015625 0l0 1.875l-1.984375 0l0 7.8749847l-2.28125 0l0 -7.8749847l-1.421875 0l0 -1.875l1.4375 0q0.078125 -1.796875 1.0625 -2.890625q0.984375 -1.109375 2.546875 -1.109375q0.8125 0 1.984375 0.34375l-0.671875 1.734375zm0.817749 6.765625q0 -2.21875 1.28125 -3.625q1.296875 -1.40625 3.40625 -1.40625q2.21875 0 3.453125 1.359375q1.234375 1.34375 1.234375 3.671875q0 2.34375 -1.265625 3.71875q-1.25 1.3749847 -3.421875 1.3749847q-2.21875 0 -3.453125 -1.3906097q-1.234375 -1.390625 -1.234375 -3.703125zm2.359375 0q0 3.234375 2.328125 3.234375q1.0625 0 1.6875 -0.84375q0.625 -0.84375 0.625 -2.390625q0 -3.171875 -2.3125 -3.171875q-1.0625 0 -1.703125 0.84375q-0.625 0.828125 -0.625 2.328125zm14.479797 -2.734375q-0.609375 -0.390625 -1.34375 -0.390625q-0.796875 0 -1.421875 0.71875q-0.609375 0.71875 -0.609375 1.75l0 5.5624847l-2.265625 0l0 -9.749985l2.265625 0l0 0.890625q0.96875 -1.078125 2.546875 -1.078125q1.171875 0 1.78125 0.359375l-0.953125 1.9375zm13.627045 7.6406097l0 -6.1093597q0 -1.921875 -1.734375 -1.921875q-0.5 0 -0.984375 0.296875q-0.46875 0.296875 -0.65625 0.6875l0 7.0468597l-2.28125 0l0 -6.4687347q0 -0.71875 -0.453125 -1.140625q-0.4375 -0.421875 -1.25 -0.421875q-0.421875 0 -0.9375 0.328125q-0.5 0.3125 -0.734375 0.6875l0 7.0156097l-2.265625 0l0 -9.749985l1.5625 0l0.46875 0.84375q0.9375 -1.03125 2.453125 -1.03125q1.9375 0 2.921875 1.0625q0.421875 -0.484375 1.1875 -0.765625q0.765625 -0.296875 1.53125 -0.296875q1.625 0 2.53125 0.9375q0.90625 0.921875 0.90625 2.5625l0 6.4374847l-2.265625 0zm10.157715 -0.96873474q-0.3125 0.49998474 -1.078125 0.82810974q-0.765625 0.328125 -1.609375 0.328125q-1.578125 0 -2.484375 -0.78125q-0.890625 -0.79685974 -0.890625 -2.2499847q0 -1.6875 1.265625 -2.640625q1.28125 -0.96875 3.609375 -0.96875q0.40625 0 0.953125 0.140625q0 -1.71875 -2.171875 -1.71875q-1.296875 0 -2.15625 0.421875l-0.484375 -1.765625q1.171875 -0.5625 2.796875 -0.5625q2.21875 0 3.25 1.015625q1.046875 1.015625 1.046875 3.84375l0 2.09375q0 1.953125 0.78125 2.4531097q-0.28125 0.484375 -0.625 0.59375q-0.34375 0.125 -0.78125 0.125q-0.5 0 -0.890625 -0.359375q-0.390625 -0.375 -0.53125 -0.79685974zm-0.21875 -3.625q-0.578125 -0.109375 -0.875 -0.109375q-2.6875 0 -2.6875 1.765625q0 1.3125 1.515625 1.3125q2.046875 0 2.046875 -2.0625l0 -0.90625zm4.1259766 3.9687347l0.8125 -1.8124847q1.015625 0.8125 2.3125 0.8125q1.328125 0 1.328125 -0.953125q0 -0.5625 -0.40625 -0.90625q-0.40625 -0.359375 -1.5625 -0.84375q-2.515625 -1.046875 -2.515625 -2.9375q0 -1.265625 0.953125 -1.96875q0.96875 -0.703125 2.484375 -0.703125q1.515625 0 2.859375 0.6875l-0.65625 1.765625q-0.75 -0.640625 -2.078125 -0.640625q-1.203125 0 -1.203125 0.953125q0 0.359375 0.390625 0.671875q0.40625 0.296875 1.6875 0.8125q1.28125 0.5 1.84375 1.21875q0.5625 0.71875 0.5625 1.734375q0 1.359375 -1.015625 2.1406097q-1.0 0.78125 -2.71875 0.78125q-0.984375 0 -1.578125 -0.171875q-0.578125 -0.15625 -1.5 -0.640625zm10.425201 -12.906235q0.546875 0 0.9375 0.390625q0.390625 0.375 0.390625 0.921875q0 0.546875 -0.390625 0.9375q-0.390625 0.390625 -0.9375 0.390625q-0.546875 0 -0.9375 -0.390625q-0.390625 -0.390625 -0.390625 -0.9375q0 -0.546875 0.390625 -0.921875q0.390625 -0.390625 0.9375 -0.390625zm-1.171875 13.531235l0 -7.8906097l-1.25 0l0 -1.859375l3.546875 0l0 9.749985l-2.296875 0z" fill-rule="nonzero"/><path fill="#ffab40" d="m309.00024 279.2754l-3.5625 -5.515625q-0.53125 0 -1.5 -0.0625l0 5.578125l-2.46875 0l0 -13.34375q0.203125 0 1.546875 -0.0625q1.34375 -0.078125 2.15625 -0.078125q5.078125 0 5.078125 3.9375q0 1.1875 -0.703125 2.171875q-0.6875 0.96875 -1.765625 1.359375l3.953125 6.015625l-2.734375 0zm-5.0625 -11.28125l0 3.703125q0.65625 0.046875 1.0 0.046875q1.484375 0 2.171875 -0.40625q0.6875 -0.421875 0.6875 -1.640625q0 -0.984375 -0.734375 -1.375q-0.734375 -0.390625 -2.328125 -0.390625q-0.375 0 -0.796875 0.0625zm17.505371 7.09375l-6.96875 0q0.0625 1.171875 0.796875 1.828125q0.75 0.640625 1.984375 0.640625q1.5625 0 2.375 -0.8125l0.890625 1.734375q-1.203125 0.984375 -3.59375 0.984375q-2.234375 0 -3.53125 -1.3125q-1.296875 -1.3125 -1.296875 -3.640625q0 -2.3125 1.421875 -3.734375q1.421875 -1.4375 3.421875 -1.4375q2.125 0 3.40625 1.265625q1.28125 1.265625 1.28125 3.21875q0 0.421875 -0.1875 1.265625zm-6.890625 -1.703125l4.796875 0q-0.234375 -2.140625 -2.375 -2.140625q-1.9375 0 -2.421875 2.140625zm15.143738 5.890625l-2.875 -4.421875l-1.09375 1.15625l0 3.265625l-2.265625 0l0 -13.390625l2.265625 -0.546875l0 7.921875l3.265625 -3.734375l2.734375 0l-3.296875 3.6875l3.96875 6.0625l-2.703125 0zm12.689606 -4.1875l-6.96875 0q0.0625 1.171875 0.796875 1.828125q0.75 0.640625 1.984375 0.640625q1.5625 0 2.375 -0.8125l0.890625 1.734375q-1.203125 0.984375 -3.59375 0.984375q-2.234375 0 -3.53125 -1.3125q-1.296875 -1.3125 -1.296875 -3.640625q0 -2.3125 1.421875 -3.734375q1.421875 -1.4375 3.421875 -1.4375q2.125 0 3.40625 1.265625q1.28125 1.265625 1.28125 3.21875q0 0.421875 -0.1875 1.265625zm-6.890625 -1.703125l4.796875 0q-0.234375 -2.140625 -2.375 -2.140625q-1.9375 0 -2.421875 2.140625zm15.175018 5.890625l0 -5.640625q0 -1.25 -0.484375 -1.8125q-0.46875 -0.578125 -1.546875 -0.578125q-0.5 0 -1.078125 0.28125q-0.5625 0.28125 -0.890625 0.703125l0 7.046875l-2.265625 0l0 -9.75l1.640625 0l0.40625 0.90625q0.9375 -1.09375 2.75 -1.09375q1.734375 0 2.734375 1.046875q1.015625 1.03125 1.015625 2.90625l0 5.984375l-2.28125 0zm6.5289917 -13.53125q0.546875 0 0.9375 0.390625q0.390625 0.375 0.390625 0.921875q0 0.546875 -0.390625 0.9375q-0.390625 0.390625 -0.9375 0.390625q-0.546875 0 -0.9375 -0.390625q-0.390625 -0.390625 -0.390625 -0.9375q0 -0.546875 0.390625 -0.921875q0.390625 -0.390625 0.9375 -0.390625zm-1.171875 13.53125l0 -7.890625l-1.25 0l0 -1.859375l3.546875 0l0 9.75l-2.296875 0zm11.222168 0l0 -5.640625q0 -1.25 -0.484375 -1.8125q-0.46875 -0.578125 -1.546875 -0.578125q-0.5 0 -1.078125 0.28125q-0.5625 0.28125 -0.890625 0.703125l0 7.046875l-2.265625 0l0 -9.75l1.640625 0l0.40625 0.90625q0.9375 -1.09375 2.75 -1.09375q1.734375 0 2.734375 1.046875q1.015625 1.03125 1.015625 2.90625l0 5.984375l-2.28125 0zm4.0133667 2.5l1.4375 -1.765625q1.203125 1.09375 2.65625 1.09375q0.984375 0 1.625 -0.296875q0.640625 -0.296875 0.640625 -0.796875q0 -0.875 -1.40625 -0.875q-0.390625 0 -1.15625 0.09375q-0.75 0.09375 -1.125 0.09375q-2.359375 0 -2.359375 -1.6875q0 -0.484375 0.390625 -0.9375q0.40625 -0.46875 0.921875 -0.6875q-1.671875 -1.09375 -1.671875 -3.078125q0 -1.5625 1.140625 -2.578125q1.15625 -1.03125 2.828125 -1.03125q1.3125 0 2.203125 0.484375l0.890625 -1.03125l1.578125 1.421875l-1.09375 0.796875q0.578125 0.859375 0.578125 2.015625q0 1.671875 -1.015625 2.671875q-1.015625 1.0 -2.578125 1.0q-0.234375 0 -0.640625 -0.046875l-0.375 -0.0625q-0.0625 0 -0.5 0.203125q-0.421875 0.1875 -0.421875 0.40625q0 0.359375 0.640625 0.359375q0.28125 0 0.9375 -0.125q0.671875 -0.140625 1.140625 -0.140625q3.328125 0 3.328125 2.671875q0 1.46875 -1.328125 2.3125q-1.328125 0.84375 -3.203125 0.84375q-2.25 0 -4.0625 -1.328125zm2.28125 -8.828125q0 0.859375 0.46875 1.390625q0.484375 0.515625 1.296875 0.515625q0.8125 0 1.25 -0.5q0.4375 -0.515625 0.4375 -1.40625q0 -0.734375 -0.46875 -1.25q-0.46875 -0.515625 -1.21875 -0.515625q-0.78125 0 -1.28125 0.5q-0.484375 0.484375 -0.484375 1.265625zm21.360138 6.328125l-0.96875 -2.703125l-4.578125 0l-0.9375 2.703125l-2.625 0l5.3125 -13.53125l1.046875 0l5.359375 13.53125l-2.609375 0zm-3.265625 -9.453125l-1.609375 4.9375l3.203125 0l-1.59375 -4.9375zm8.940002 -4.078125q0.546875 0 0.9375 0.390625q0.390625 0.375 0.390625 0.921875q0 0.546875 -0.390625 0.9375q-0.390625 0.390625 -0.9375 0.390625q-0.546875 0 -0.9375 -0.390625q-0.390625 -0.390625 -0.390625 -0.9375q0 -0.546875 0.390625 -0.921875q0.390625 -0.390625 0.9375 -0.390625zm-1.171875 13.53125l0 -7.890625l-1.25 0l0 -1.859375l3.546875 0l0 9.75l-2.296875 0zm10.597168 -7.640625q-0.609375 -0.390625 -1.34375 -0.390625q-0.796875 0 -1.421875 0.71875q-0.609375 0.71875 -0.609375 1.75l0 5.5625l-2.265625 0l0 -9.75l2.265625 0l0 0.890625q0.96875 -1.078125 2.546875 -1.078125q1.171875 0 1.78125 0.359375l-0.953125 1.9375z" fill-rule="nonzero"/></g></svg>